<svg width="1437" height="1256" viewBox="0 0 1437 1256" fill="none" xmlns="http://www.w3.org/2000/svg">
<path d="M18.4662 49.3531L18.0227 50.0262L18.3507 50.7626L17.6776 50.319L16.9413 50.6471L17.3848 49.9739L17.0567 49.2376L17.7299 49.6811L18.4662 49.3531Z" fill="white"/>
<path d="M209.876 106.762L209.432 107.436L209.76 108.172L209.087 107.728L208.351 108.056L208.794 107.383L208.466 106.647L209.139 107.091L209.876 106.762Z" fill="white"/>
<path d="M92.8756 172.762L92.4321 173.436L92.7602 174.172L92.087 173.728L91.3507 174.056L91.7942 173.383L91.4662 172.647L92.1393 173.091L92.8756 172.762Z" fill="white"/>
<path d="M110.876 67.7625L110.432 68.4356L110.76 69.172L110.087 68.7284L109.351 69.0565L109.794 68.3834L109.466 67.647L110.139 68.0906L110.876 67.7625Z" fill="white"/>
<path d="M55.8756 92.7625L55.4321 93.4356L55.7602 94.172L55.087 93.7284L54.3507 94.0565L54.7942 93.3834L54.4662 92.647L55.1393 93.0906L55.8756 92.7625Z" fill="white"/>
<path d="M403.876 155.762L403.432 156.436L403.76 157.172L403.087 156.728L402.351 157.056L402.794 156.383L402.466 155.647L403.139 156.091L403.876 155.762Z" fill="white"/>
<path d="M228.876 51.7625L228.432 52.4356L228.76 53.172L228.087 52.7284L227.351 53.0565L227.794 52.3834L227.466 51.647L228.139 52.0906L228.876 51.7625Z" fill="white"/>
<path d="M652.876 109.762L652.432 110.436L652.76 111.172L652.087 110.728L651.351 111.056L651.794 110.383L651.466 109.647L652.139 110.091L652.876 109.762Z" fill="white"/>
<path d="M420.876 273.762L420.432 274.436L420.76 275.172L420.087 274.728L419.351 275.056L419.794 274.383L419.466 273.647L420.139 274.091L420.876 273.762Z" fill="white"/>
<path d="M227.876 194.762L227.432 195.436L227.76 196.172L227.087 195.728L226.351 196.056L226.794 195.383L226.466 194.647L227.139 195.091L227.876 194.762Z" fill="white"/>
<path d="M219.876 349.762L219.432 350.436L219.76 351.172L219.087 350.728L218.351 351.056L218.794 350.383L218.466 349.647L219.139 350.091L219.876 349.762Z" fill="white"/>
<path d="M817.876 335.762L817.432 336.436L817.76 337.172L817.087 336.728L816.351 337.056L816.794 336.383L816.466 335.647L817.139 336.091L817.876 335.762Z" fill="white"/>
<path d="M1010.88 138.762L1010.43 139.436L1010.76 140.172L1010.09 139.728L1009.35 140.056L1009.79 139.383L1009.47 138.647L1010.14 139.091L1010.88 138.762Z" fill="white"/>
<path d="M1285.88 314.762L1285.43 315.436L1285.76 316.172L1285.09 315.728L1284.35 316.056L1284.79 315.383L1284.47 314.647L1285.14 315.091L1285.88 314.762Z" fill="white"/>
<path d="M1159.88 628.762L1159.43 629.436L1159.76 630.172L1159.09 629.728L1158.35 630.056L1158.79 629.383L1158.47 628.647L1159.14 629.091L1159.88 628.762Z" fill="white"/>
<path d="M1288.88 828.762L1288.43 829.436L1288.76 830.172L1288.09 829.728L1287.35 830.056L1287.79 829.383L1287.47 828.647L1288.14 829.091L1288.88 828.762Z" fill="white"/>
<path d="M979.876 863.762L979.432 864.436L979.76 865.172L979.087 864.728L978.351 865.056L978.794 864.383L978.466 863.647L979.139 864.091L979.876 863.762Z" fill="white"/>
<path d="M623.876 825.762L623.432 826.436L623.76 827.172L623.087 826.728L622.351 827.056L622.794 826.383L622.466 825.647L623.139 826.091L623.876 825.762Z" fill="white"/>
<path d="M799.876 446.762L799.432 447.436L799.76 448.172L799.087 447.728L798.351 448.056L798.794 447.383L798.466 446.647L799.139 447.091L799.876 446.762Z" fill="white"/>
<path d="M527.876 367.762L527.432 368.436L527.76 369.172L527.087 368.728L526.351 369.056L526.794 368.383L526.466 367.647L527.139 368.091L527.876 367.762Z" fill="white"/>
<path d="M318.876 745.762L318.432 746.436L318.76 747.172L318.087 746.728L317.351 747.056L317.794 746.383L317.466 745.647L318.139 746.091L318.876 745.762Z" fill="white"/>
<path d="M75.8756 631.762L75.4321 632.436L75.7602 633.172L75.087 632.728L74.3507 633.056L74.7942 632.383L74.4662 631.647L75.1393 632.091L75.8756 631.762Z" fill="white"/>
<path d="M78.8756 284.762L78.4321 285.436L78.7602 286.172L78.087 285.728L77.3507 286.056L77.7942 285.383L77.4662 284.647L78.1393 285.091L78.8756 284.762Z" fill="white"/>
<path d="M400.876 317.762L400.432 318.436L400.76 319.172L400.087 318.728L399.351 319.056L399.794 318.383L399.466 317.647L400.139 318.091L400.876 317.762Z" fill="white"/>
<path d="M967.876 320.762L967.432 321.436L967.76 322.172L967.087 321.728L966.351 322.056L966.794 321.383L966.466 320.647L967.139 321.091L967.876 320.762Z" fill="white"/>
<path d="M858.876 555.762L858.432 556.436L858.76 557.172L858.087 556.728L857.351 557.056L857.794 556.383L857.466 555.647L858.139 556.091L858.876 555.762Z" fill="white"/>
<path d="M725.876 678.762L725.432 679.436L725.76 680.172L725.087 679.728L724.351 680.056L724.794 679.383L724.466 678.647L725.139 679.091L725.876 678.762Z" fill="white"/>
<path d="M541.876 400.762L541.432 401.436L541.76 402.172L541.087 401.728L540.351 402.056L540.794 401.383L540.466 400.647L541.139 401.091L541.876 400.762Z" fill="white"/>
<path d="M758.876 219.762L758.432 220.436L758.76 221.172L758.087 220.728L757.351 221.056L757.794 220.383L757.466 219.647L758.139 220.091L758.876 219.762Z" fill="white"/>
<path d="M113.876 734.762L113.432 735.436L113.76 736.172L113.087 735.728L112.351 736.056L112.794 735.383L112.466 734.647L113.139 735.091L113.876 734.762Z" fill="white"/>
<path d="M89.8756 432.762L89.4321 433.436L89.7602 434.172L89.087 433.728L88.3507 434.056L88.7942 433.383L88.4662 432.647L89.1393 433.091L89.8756 432.762Z" fill="white"/>
<path d="M640.876 421.762L640.432 422.436L640.76 423.172L640.087 422.728L639.351 423.056L639.794 422.383L639.466 421.647L640.139 422.091L640.876 421.762Z" fill="white"/>
<path d="M861.876 846.762L861.432 847.436L861.76 848.172L861.087 847.728L860.351 848.056L860.794 847.383L860.466 846.647L861.139 847.091L861.876 846.762Z" fill="white"/>
<path d="M483.876 934.762L483.432 935.436L483.76 936.172L483.087 935.728L482.351 936.056L482.794 935.383L482.466 934.647L483.139 935.091L483.876 934.762Z" fill="white"/>
<path d="M480.876 565.762L480.432 566.436L480.76 567.172L480.087 566.728L479.351 567.056L479.794 566.383L479.466 565.647L480.139 566.091L480.876 565.762Z" fill="white"/>
<path d="M1256.88 112.762L1256.43 113.436L1256.76 114.172L1256.09 113.728L1255.35 114.056L1255.79 113.383L1255.47 112.647L1256.14 113.091L1256.88 112.762Z" fill="white"/>
<path d="M1341.88 70.7625L1341.43 71.4356L1341.76 72.172L1341.09 71.7284L1340.35 72.0565L1340.79 71.3834L1340.47 70.647L1341.14 71.0906L1341.88 70.7625Z" fill="white"/>
<path d="M1352.88 860.762L1352.43 861.436L1352.76 862.172L1352.09 861.728L1351.35 862.056L1351.79 861.383L1351.47 860.647L1352.14 861.091L1352.88 860.762Z" fill="white"/>
<path d="M1146.88 981.762L1146.43 982.436L1146.76 983.172L1146.09 982.728L1145.35 983.056L1145.79 982.383L1145.47 981.647L1146.14 982.091L1146.88 981.762Z" fill="white"/>
<path d="M1011.88 550.762L1011.43 551.436L1011.76 552.172L1011.09 551.728L1010.35 552.056L1010.79 551.383L1010.47 550.647L1011.14 551.091L1011.88 550.762Z" fill="white"/>
<path d="M587.523 634.525L586.636 635.871L587.292 637.344L585.945 636.457L584.473 637.113L585.36 635.767L584.704 634.294L586.05 635.181L587.523 634.525Z" fill="white"/>
<path d="M340.048 464.525L339.161 465.871L339.817 467.344L338.47 466.457L336.998 467.113L337.885 465.767L337.229 464.294L338.575 465.181L340.048 464.525Z" fill="white"/>
<path d="M938.048 176.525L937.161 177.871L937.817 179.344L936.47 178.457L934.998 179.113L935.885 177.767L935.229 176.294L936.575 177.181L938.048 176.525Z" fill="white"/>
<path d="M705.048 50.525L704.161 51.8712L704.817 53.3439L703.47 52.4568L701.998 53.113L702.885 51.7667L702.229 50.294L703.575 51.1811L705.048 50.525Z" fill="white"/>
<path d="M487.048 53.525L486.161 54.8712L486.817 56.3439L485.47 55.4568L483.998 56.113L484.885 54.7667L484.229 53.294L485.575 54.1811L487.048 53.525Z" fill="white"/>
<path d="M1115.05 21.525L1114.16 22.8712L1114.82 24.3439L1113.47 23.4568L1112 24.113L1112.88 22.7667L1112.23 21.294L1113.57 22.1811L1115.05 21.525Z" fill="white"/>
<path d="M913.048 637.525L912.161 638.871L912.817 640.344L911.47 639.457L909.998 640.113L910.885 638.767L910.229 637.294L911.575 638.181L913.048 637.525Z" fill="white"/>
<path d="M215.048 613.525L214.161 614.871L214.817 616.344L213.47 615.457L211.998 616.113L212.885 614.767L212.229 613.294L213.575 614.181L215.048 613.525Z" fill="white"/>
<path d="M182.048 929.525L181.161 930.871L181.817 932.344L180.47 931.457L178.998 932.113L179.885 930.767L179.229 929.294L180.575 930.181L182.048 929.525Z" fill="white"/>
<path d="M72.0476 554.525L71.1605 555.871L71.8167 557.344L70.4704 556.457L68.9977 557.113L69.8848 555.767L69.2286 554.294L70.5749 555.181L72.0476 554.525Z" fill="white"/>
<path d="M61.0476 867.525L60.1605 868.871L60.8167 870.344L59.4704 869.457L57.9977 870.113L58.8848 868.767L58.2286 867.294L59.5749 868.181L61.0476 867.525Z" fill="white"/>
<path d="M23.0477 321.525L22.1606 322.871L22.8167 324.344L21.4705 323.457L19.9977 324.113L20.8849 322.767L20.2287 321.294L21.575 322.181L23.0477 321.525Z" fill="white"/>
<path d="M749.695 85.1356L748.905 85.2979L748.616 86.0506L748.454 85.261L747.701 84.9723L748.491 84.8099L748.78 84.0573L748.942 84.8469L749.695 85.1356Z" fill="white"/>
<path d="M958.291 228.678L957.502 228.841L957.213 229.593L957.051 228.804L956.298 228.515L957.087 228.353L957.376 227.6L957.539 228.39L958.291 228.678Z" fill="white"/>
<path d="M678.277 180.595L677.487 180.757L677.199 181.51L677.036 180.72L676.284 180.432L677.073 180.269L677.362 179.517L677.524 180.306L678.277 180.595Z" fill="white"/>
<path d="M482.408 92.2066L481.619 92.369L481.33 93.1216L481.168 92.332L480.415 92.0433L481.205 91.881L481.493 91.1283L481.656 91.9179L482.408 92.2066Z" fill="white"/>
<path d="M915.158 505.157L914.368 505.319L914.079 506.072L913.917 505.282L913.164 504.994L913.954 504.831L914.243 504.079L914.405 504.868L915.158 505.157Z" fill="white"/>
<path d="M1190.93 502.329L1190.14 502.491L1189.85 503.244L1189.69 502.454L1188.94 502.165L1189.73 502.003L1190.01 501.25L1190.18 502.04L1190.93 502.329Z" fill="white"/>
<path d="M1260.93 821.234L1260.14 821.396L1259.85 822.149L1259.69 821.359L1258.94 821.07L1259.73 820.908L1260.02 820.155L1260.18 820.945L1260.93 821.234Z" fill="white"/>
<path d="M949.806 954.17L949.016 954.332L948.728 955.085L948.565 954.295L947.813 954.006L948.602 953.844L948.891 953.091L949.053 953.881L949.806 954.17Z" fill="white"/>
<path d="M899.601 1186.81L898.812 1186.97L898.523 1187.72L898.361 1186.93L897.608 1186.64L898.398 1186.48L898.686 1185.73L898.849 1186.52L899.601 1186.81Z" fill="white"/>
<path d="M656.357 993.061L655.567 993.223L655.278 993.976L655.116 993.186L654.363 992.897L655.153 992.735L655.442 991.982L655.604 992.772L656.357 993.061Z" fill="white"/>
<path d="M431.497 714.461L430.707 714.623L430.418 715.376L430.256 714.586L429.503 714.297L430.293 714.135L430.582 713.382L430.744 714.172L431.497 714.461Z" fill="white"/>
<path d="M823.941 570.918L823.151 571.08L822.863 571.833L822.7 571.043L821.948 570.755L822.737 570.592L823.026 569.84L823.188 570.629L823.941 570.918Z" fill="white"/>
<path d="M687.469 322.723L686.68 322.886L686.391 323.638L686.229 322.849L685.476 322.56L686.266 322.398L686.554 321.645L686.717 322.435L687.469 322.723Z" fill="white"/>
<path d="M272.398 442.225L271.608 442.387L271.319 443.14L271.157 442.35L270.404 442.061L271.194 441.899L271.483 441.146L271.645 441.936L272.398 442.225Z" fill="white"/>
<path d="M181.181 189.787L180.391 189.95L180.103 190.702L179.94 189.913L179.188 189.624L179.977 189.462L180.266 188.709L180.428 189.499L181.181 189.787Z" fill="white"/>
<path d="M633.022 197.566L632.232 197.728L631.944 198.481L631.781 197.691L631.029 197.402L631.818 197.24L632.107 196.487L632.269 197.277L633.022 197.566Z" fill="white"/>
<path d="M1031.83 600.616L1031.04 600.779L1030.75 601.531L1030.59 600.742L1029.84 600.453L1030.63 600.291L1030.92 599.538L1031.08 600.328L1031.83 600.616Z" fill="white"/>
<path d="M788.586 689.712L787.796 689.874L787.507 690.627L787.345 689.837L786.592 689.549L787.382 689.386L787.671 688.634L787.833 689.423L788.586 689.712Z" fill="white"/>
<path d="M607.566 682.641L606.777 682.803L606.488 683.556L606.326 682.766L605.573 682.478L606.363 682.315L606.651 681.563L606.814 682.352L607.566 682.641Z" fill="white"/>
<path d="M674.034 355.957L673.245 356.12L672.956 356.872L672.794 356.083L672.041 355.794L672.831 355.632L673.119 354.879L673.282 355.669L674.034 355.957Z" fill="white"/>
<path d="M955.463 381.413L954.673 381.576L954.384 382.328L954.222 381.539L953.469 381.25L954.259 381.088L954.548 380.335L954.71 381.125L955.463 381.413Z" fill="white"/>
<path d="M135.219 289.489L134.429 289.652L134.141 290.404L133.978 289.615L133.226 289.326L134.015 289.164L134.304 288.411L134.466 289.201L135.219 289.489Z" fill="white"/>
<path d="M331.795 58.9726L331.005 59.135L330.716 59.8876L330.554 59.098L329.801 58.8093L330.591 58.647L330.88 57.8943L331.042 58.6839L331.795 58.9726Z" fill="white"/>
<path d="M729.189 440.81L728.399 440.973L728.11 441.725L727.948 440.936L727.195 440.647L727.985 440.485L728.274 439.732L728.436 440.522L729.189 440.81Z" fill="white"/>
<path d="M584.939 897.601L584.149 897.764L583.86 898.516L583.698 897.727L582.945 897.438L583.735 897.276L584.024 896.523L584.186 897.313L584.939 897.601Z" fill="white"/>
<path d="M255.427 692.54L254.637 692.703L254.349 693.455L254.186 692.666L253.434 692.377L254.223 692.215L254.512 691.462L254.674 692.252L255.427 692.54Z" fill="white"/>
<path d="M514.228 429.497L513.438 429.659L513.15 430.412L512.987 429.622L512.235 429.333L513.024 429.171L513.313 428.418L513.475 429.208L514.228 429.497Z" fill="white"/>
<path d="M1383.26 657.892L1382.47 658.054L1382.18 658.807L1382.02 658.017L1381.27 657.729L1382.06 657.566L1382.35 656.814L1382.51 657.603L1383.26 657.892Z" fill="white"/>
<path d="M922.229 1254.69L921.439 1254.85L921.15 1255.61L920.988 1254.82L920.235 1254.53L921.025 1254.36L921.314 1253.61L921.476 1254.4L922.229 1254.69Z" fill="white"/>
<path d="M691.005 1194.59L690.215 1194.75L689.926 1195.5L689.764 1194.71L689.011 1194.42L689.801 1194.26L690.09 1193.51L690.252 1194.3L691.005 1194.59Z" fill="white"/>
<path d="M900.308 794.364L899.519 794.526L899.23 795.279L899.068 794.489L898.315 794.2L899.105 794.038L899.393 793.285L899.556 794.075L900.308 794.364Z" fill="white"/>
<path d="M541.017 553.53L539.437 553.855L538.86 555.36L538.535 553.781L537.03 553.203L538.609 552.879L539.186 551.373L539.511 552.952L541.017 553.53Z" fill="white"/>
<path d="M486.233 258.33L484.654 258.655L484.077 260.16L483.752 258.581L482.247 258.004L483.826 257.679L484.403 256.174L484.728 257.753L486.233 258.33Z" fill="white"/>
<path d="M1112.73 477.533L1111.15 477.858L1110.57 479.363L1110.25 477.784L1108.74 477.207L1110.32 476.882L1110.9 475.377L1111.22 476.956L1112.73 477.533Z" fill="white"/>
<path d="M1037.07 223.682L1035.49 224.007L1034.91 225.512L1034.59 223.933L1033.08 223.356L1034.66 223.031L1035.24 221.526L1035.56 223.105L1037.07 223.682Z" fill="white"/>
<path d="M880.799 71.6542L879.22 71.9789L878.642 73.4842L878.318 71.905L876.812 71.3276L878.392 71.0029L878.969 69.4976L879.294 71.0768L880.799 71.6542Z" fill="white"/>
<path d="M1347.49 493.09L1345.91 493.415L1345.33 494.92L1345.01 493.341L1343.5 492.763L1345.08 492.439L1345.66 490.933L1345.98 492.512L1347.49 493.09Z" fill="white"/>
<path d="M769.076 785.832L767.497 786.157L766.919 787.662L766.595 786.083L765.089 785.505L766.669 785.181L767.246 783.675L767.571 785.255L769.076 785.832Z" fill="white"/>
<path d="M292.486 275.301L290.907 275.626L290.33 277.131L290.005 275.552L288.5 274.974L290.079 274.65L290.656 273.144L290.981 274.724L292.486 275.301Z" fill="white"/>
<path d="M45.7058 475.412L44.1266 475.737L43.5492 477.242L43.2245 475.663L41.7192 475.086L43.2984 474.761L43.8758 473.256L44.2005 474.835L45.7058 475.412Z" fill="white"/>
<path d="M233.089 132.465L231.51 132.79L230.933 134.295L230.608 132.716L229.103 132.139L230.682 131.814L231.259 130.309L231.584 131.888L233.089 132.465Z" fill="white"/>
<path d="M3.9866 346.012L2.40736 346.336L1.82997 347.842L1.50529 346.262L-4.58509e-05 345.685L1.57919 345.36L2.15658 343.855L2.48126 345.434L3.9866 346.012Z" fill="white"/>
</svg>
