<svg width="20" height="22" viewBox="0 0 20 22" fill="none" xmlns="http://www.w3.org/2000/svg">
<g clip-path="url(#clip0_2500_40222)">
<path d="M13.7297 2.59825C13.7108 2.59825 13.6728 2.61732 13.6562 2.61732C13.6395 2.61732 13.3824 2.68627 12.9797 2.80951C12.5785 1.6791 11.8649 0.636724 10.6029 0.636724H10.4937C10.2237 0.269948 9.79524 0.0264079 9.3076 0H9.30381C6.36053 0 4.95374 3.55407 4.51312 5.35861C3.38162 5.69311 2.55802 5.94178 2.46625 5.97626C1.82618 6.17138 1.80874 6.18899 1.73442 6.77363C1.66313 7.19689 0 19.6651 0 19.6651L12.8515 22L13.7297 2.59825ZM10.8941 1.41649C11.5516 1.48398 11.9756 2.21093 12.2486 3.02517C11.9179 3.12934 11.5516 3.23717 11.1512 3.36041V3.12934C11.152 3.09339 11.1527 3.05085 11.1527 3.0083C11.1527 2.43833 11.0579 1.89037 10.8835 1.37688L10.8941 1.41356V1.41649ZM10.383 3.46457V3.58854C9.66859 3.80127 8.88291 4.03234 8.11391 4.26341C8.31412 3.08459 9.05202 2.10383 10.0705 1.55L10.0902 1.54046C10.2783 2.05762 10.3868 2.654 10.3868 3.27532C10.3868 3.34207 10.3853 3.40882 10.383 3.47558V3.46604V3.46457ZM9.2128 0.761428C9.35689 0.761428 9.49113 0.807642 9.59806 0.886132L9.59654 0.884665C8.27013 1.65343 7.3616 2.98336 7.22129 4.52602L7.21978 4.54363C6.59791 4.73876 5.99424 4.91481 5.42924 5.07326C5.92067 3.4367 7.10981 0.769498 9.21204 0.769498L9.2128 0.761428ZM9.72471 10.3636C9.23328 10.1289 8.65691 9.9866 8.04793 9.97486H8.04414C6.67299 9.97486 6.61914 10.8052 6.61914 11.0209C6.61914 12.1506 9.68982 12.5929 9.68982 15.2645C9.70044 15.3584 9.70575 15.4677 9.70575 15.5777C9.70575 17.3082 8.25573 18.7107 6.46671 18.7107H6.4614C6.42348 18.7122 6.37949 18.7122 6.33551 18.7122C5.06446 18.7122 3.91855 18.1965 3.1086 17.3698L3.10632 17.3676L3.71834 15.4552C4.30532 15.9541 5.04171 16.3018 5.85469 16.4294L5.87972 16.4323C5.88882 16.4323 5.89868 16.4331 5.9093 16.4331C6.39921 16.4331 6.79736 16.0516 6.80419 15.5785C6.80419 14.0945 4.28864 14.0248 4.28864 11.5821C4.28864 11.5674 4.28864 11.5498 4.28864 11.5322C4.28864 9.31246 6.14895 7.51379 8.44305 7.51379C8.59093 7.51379 8.7373 7.52112 8.88139 7.53579L8.86319 7.53433C8.92158 7.53139 8.98984 7.52919 9.05885 7.52919C9.63219 7.52919 10.1767 7.65316 10.6636 7.8747L10.6408 7.86516L9.74518 10.3541L9.72471 10.3636ZM13.1617 21.9817L20 20.5505C20 20.5505 17.5322 4.40499 17.5125 4.29789C17.4989 4.20033 17.4154 4.1255 17.3131 4.12184C17.2213 4.12184 15.4846 3.99713 15.4846 3.99713C15.4846 3.99713 14.2765 2.82932 14.121 2.70388C14.0884 2.67527 14.0505 2.65253 14.0088 2.63712L14.0065 2.63639L13.1405 21.9817H13.1617Z" fill="#F3F3ED"/>
</g>
<defs>
<clipPath id="clip0_2500_40222">
<rect width="20" height="22" fill="white"/>
</clipPath>
</defs>
</svg>
